<svg width="36" height="24" viewBox="0 0 36 24" fill="none" xmlns="http://www.w3.org/2000/svg">
<path d="M0 0V0C6.62742 0 12 5.37258 12 12V12H0V0Z" fill="#3979EA"/>
<path d="M24 12V12C24 18.6274 18.6274 24 12 24V24L12 12L24 12Z" fill="#3979EA"/>
<path d="M24 0V0C24 6.62742 18.6274 12 12 12V12L12 -5.24537e-07L24 0Z" fill="#3956EA"/>
<path d="M36 12V12C29.3726 12 24 6.62742 24 -3.33817e-07V-3.33817e-07L36 7.15256e-07L36 12Z" fill="#399CEA"/>
<path d="M36 12V12C36 18.6274 30.6274 24 24 24V24L24 12L36 12Z" fill="#99FB9C"/>
<path d="M0 12V12C6.62742 12 12 17.3726 12 24V24H0V12Z" fill="#D8C7F2"/>
</svg>
